<svg width="512" height="118" viewBox="0 0 512 118" fill="none" xmlns="http://www.w3.org/2000/svg">
<path d="M50.9919 117.033L27.0569 32.7405H26.3365C27.4572 47.0961 28.0175 58.2497 28.0175 66.2014V117.033H0V0H42.1063L66.5216 83.0919H67.162L91.0969 0H133.283V117.033H104.225V65.7211C104.225 63.0527 104.252 60.0909 104.305 56.8355C104.412 53.5802 104.785 45.6018 105.426 32.9006H104.705L81.0907 117.033H50.9919Z" fill="#535353"/>
<path d="M339.812 56.035C339.812 75.5672 334.422 90.6166 323.642 101.183C312.916 111.75 297.813 117.033 278.334 117.033H240.47V0H280.976C299.761 0 314.25 4.803 324.443 14.409C334.689 24.015 339.812 37.8903 339.812 56.035ZM306.992 57.1557C306.992 46.429 304.857 38.4774 300.588 33.3008C296.372 28.1242 289.941 25.536 281.296 25.536H272.09V91.0969H279.134C288.74 91.0969 295.785 88.3219 300.268 82.7717C304.75 77.1682 306.992 68.6296 306.992 57.1557Z" fill="#535353"/>
<path d="M473.976 117.033H442.837V0H512V25.3759H473.976V47.7098H509.038V73.0857H473.976V117.033Z" fill="#535353"/>
</svg>
