<svg width="319" height="15" viewBox="0 0 319 15" fill="none" xmlns="http://www.w3.org/2000/svg">
<path d="M6.35156 14L3.72363 4.74512H3.64453C3.76758 6.32129 3.8291 7.5459 3.8291 8.41895V14H0.75293V1.15039H5.37598L8.05664 10.2734H8.12695L10.7549 1.15039H15.3867V14H12.1963V8.36621C12.1963 8.07324 12.1992 7.74805 12.2051 7.39062C12.2168 7.0332 12.2578 6.15723 12.3281 4.7627H12.249L9.65625 14H6.35156Z" fill="#535353"/>
<path d="M35.0391 14L34.4062 11.5918H30.2314L29.5811 14H25.7666L29.959 1.09766H34.5908L38.8359 14H35.0391ZM33.6855 8.74414L33.1318 6.63477C33.0029 6.16602 32.8447 5.55957 32.6572 4.81543C32.4756 4.07129 32.3555 3.53809 32.2969 3.21582C32.2441 3.51465 32.1387 4.00684 31.9805 4.69238C31.8281 5.37793 31.4854 6.72852 30.9521 8.74414H33.6855Z" fill="#535353"/>
<path d="M52.7051 9.32422V14H49.2334V1.15039H53.4434C56.9355 1.15039 58.6816 2.41602 58.6816 4.94727C58.6816 6.43555 57.9551 7.58691 56.502 8.40137L60.2461 14H56.3086L53.584 9.32422H52.7051ZM52.7051 6.71387H53.3555C54.5684 6.71387 55.1748 6.17773 55.1748 5.10547C55.1748 4.2207 54.5801 3.77832 53.3906 3.77832H52.7051V6.71387Z" fill="#535353"/>
<path d="M81.3926 14H77.4727L74.9326 9.08691L73.9043 9.70215V14H70.415V1.15039H73.9043V6.73145C74.0801 6.38574 74.4346 5.83789 74.9678 5.08789L77.666 1.15039H81.4629L77.4111 6.90723L81.3926 14Z" fill="#535353"/>
<path d="M102.697 7.30273C102.697 9.44727 102.105 11.0996 100.922 12.2598C99.7441 13.4199 98.0859 14 95.9473 14H91.79V1.15039H96.2373C98.2998 1.15039 99.8906 1.67773 101.01 2.73242C102.135 3.78711 102.697 5.31055 102.697 7.30273ZM99.0938 7.42578C99.0938 6.24805 98.8594 5.375 98.3906 4.80664C97.9277 4.23828 97.2217 3.9541 96.2725 3.9541H95.2617V11.1523H96.0352C97.0898 11.1523 97.8633 10.8477 98.3555 10.2383C98.8477 9.62305 99.0938 8.68555 99.0938 7.42578Z" fill="#535353"/>
<path d="M126.032 7.55762C126.032 9.71973 125.502 11.3633 124.441 12.4883C123.381 13.6133 121.828 14.1758 119.783 14.1758C117.768 14.1758 116.221 13.6104 115.143 12.4795C114.07 11.3486 113.534 9.70215 113.534 7.54004C113.534 5.40137 114.067 3.76953 115.134 2.64453C116.206 1.51367 117.762 0.948242 119.801 0.948242C121.846 0.948242 123.396 1.50781 124.45 2.62695C125.505 3.74609 126.032 5.38965 126.032 7.55762ZM117.19 7.55762C117.19 10.042 118.055 11.2842 119.783 11.2842C120.662 11.2842 121.312 10.9824 121.734 10.3789C122.162 9.77539 122.376 8.83496 122.376 7.55762C122.376 6.27441 122.159 5.32812 121.726 4.71875C121.298 4.10352 120.656 3.7959 119.801 3.7959C118.061 3.7959 117.19 5.0498 117.19 7.55762Z" fill="#535353"/>
<path d="M151.23 14H147.126L145.896 8.40137C145.837 8.16699 145.743 7.70117 145.614 7.00391C145.491 6.30664 145.4 5.72363 145.342 5.25488C145.295 5.63574 145.219 6.11035 145.113 6.67871C145.008 7.24121 144.902 7.75977 144.797 8.23438C144.697 8.70898 144.272 10.6309 143.522 14H139.418L136.236 1.15039H139.585L140.982 7.59277C141.299 9.0166 141.516 10.1504 141.633 10.9941C141.709 10.3965 141.844 9.58496 142.037 8.55957C142.236 7.53418 142.421 6.68457 142.591 6.01074L143.725 1.15039H146.941L148.04 6.01074C148.228 6.79004 148.418 7.68945 148.611 8.70898C148.805 9.72852 148.934 10.4902 148.998 10.9941C149.074 10.3438 149.282 9.21582 149.622 7.61035L151.046 1.15039H154.395L151.23 14Z" fill="#535353"/>
<path d="M177.29 14H172.737L168.044 4.94727H167.965C168.076 6.37109 168.132 7.45801 168.132 8.20801V14H165.056V1.15039H169.591L174.267 10.0801H174.319C174.237 8.78516 174.196 7.74512 174.196 6.95996V1.15039H177.29V14Z" fill="#535353"/>
<path d="M206.162 14H202.743V1.15039H210.337V3.93652H206.162V6.38867H210.012V9.1748H206.162V14Z" fill="#535353"/>
<path d="M221.446 14V1.15039H224.918V11.1963H229.866V14H221.446Z" fill="#535353"/>
<path d="M248.807 14L248.174 11.5918H243.999L243.349 14H239.534L243.727 1.09766H248.358L252.604 14H248.807ZM247.453 8.74414L246.899 6.63477C246.771 6.16602 246.612 5.55957 246.425 4.81543C246.243 4.07129 246.123 3.53809 246.064 3.21582C246.012 3.51465 245.906 4.00684 245.748 4.69238C245.596 5.37793 245.253 6.72852 244.72 8.74414H247.453Z" fill="#535353"/>
<path d="M270.217 1.15039H274.102L269.892 14H265.805L261.612 1.15039H265.515L267.264 7.66309C267.627 9.11035 267.826 10.1182 267.861 10.6865C267.902 10.2764 267.984 9.76367 268.107 9.14844C268.23 8.5332 268.339 8.0498 268.433 7.69824L270.217 1.15039Z" fill="#535353"/>
<path d="M296.522 7.55762C296.522 9.71973 295.992 11.3633 294.932 12.4883C293.871 13.6133 292.318 14.1758 290.273 14.1758C288.258 14.1758 286.711 13.6104 285.633 12.4795C284.561 11.3486 284.024 9.70215 284.024 7.54004C284.024 5.40137 284.558 3.76953 285.624 2.64453C286.696 1.51367 288.252 0.948242 290.291 0.948242C292.336 0.948242 293.886 1.50781 294.94 2.62695C295.995 3.74609 296.522 5.38965 296.522 7.55762ZM287.681 7.55762C287.681 10.042 288.545 11.2842 290.273 11.2842C291.152 11.2842 291.803 10.9824 292.225 10.3789C292.652 9.77539 292.866 8.83496 292.866 7.55762C292.866 6.27441 292.649 5.32812 292.216 4.71875C291.788 4.10352 291.146 3.7959 290.291 3.7959C288.551 3.7959 287.681 5.0498 287.681 7.55762Z" fill="#535353"/>
<path d="M311.314 9.32422V14H307.843V1.15039H312.053C315.545 1.15039 317.291 2.41602 317.291 4.94727C317.291 6.43555 316.564 7.58691 315.111 8.40137L318.855 14H314.918L312.193 9.32422H311.314ZM311.314 6.71387H311.965C313.178 6.71387 313.784 6.17773 313.784 5.10547C313.784 4.2207 313.189 3.77832 312 3.77832H311.314V6.71387Z" fill="#535353"/>
</svg>
